<?xml version="1.0" encoding="UTF-8"?>
<svg width="123px" height="24px" viewBox="0 0 123 24" version="1.1" xmlns="http://www.w3.org/2000/svg" xmlns:xlink="http://www.w3.org/1999/xlink">
    <!-- Generator: Sketch 49.1 (51147) - http://www.bohemiancoding.com/sketch -->
    <title>Logo</title>
    <desc>Created with Sketch.</desc>
    <defs></defs>
    <g id="SCREENS" stroke="none" stroke-width="1" fill="none" fill-rule="evenodd">
        <g id="Splash" transform="translate(-112.000000, -40.000000)">
            <g id="Logo" transform="translate(112.000000, 40.000000)">
                <path d="M28.5535714,23.6328234 L28.5535714,6.94297636 L32.0990057,6.94297636 L32.0990057,8.945758 C33.9592737,7.72182976 35.8195138,6.93185157 37.6797818,6.57579972 L37.6797818,10.2141864 C35.7976283,10.5924915 34.1890677,11.0820554 32.8540518,11.6828929 L32.1318338,11.9833102 L32.1318338,23.6328234 L28.5535714,23.6328234 Z M52.0913154,20.6286509 L53.010502,20.5285118 L53.0761582,23.232267 C50.5812105,23.7440916 48.3708076,24 46.4448831,24 C44.0155919,24 42.270249,23.3212863 41.208802,21.9638387 C40.1473549,20.606391 39.6166394,18.4367326 39.6166394,15.4547983 C39.6166394,9.53543633 41.9911811,6.57579972 46.7403359,6.57579972 C51.3362922,6.57579972 53.6342358,9.12375755 53.6342358,14.2197497 L53.4044391,16.8233658 L43.2277298,16.8233658 C43.2496153,18.2030667 43.5450652,19.215574 44.1140883,19.8609179 C44.6831115,20.5062619 45.7445426,20.8289291 47.2984135,20.8289291 C48.8522844,20.8289291 50.4499024,20.7621703 52.0913154,20.6286509 Z M50.1216297,14.0194715 C50.1216297,12.3727317 49.8644788,11.2211438 49.3501694,10.5646732 C48.8358601,9.90820256 47.9659242,9.57997218 46.7403359,9.57997218 C45.5147476,9.57997218 44.6229266,9.92489224 44.0648462,10.6147427 C43.5067658,11.3045932 43.2167872,12.4394914 43.1949017,14.0194715 L50.1216297,14.0194715 Z M64.7301318,6.57579972 C66.9843389,6.57579972 68.6093134,7.21557079 69.6051039,8.49513213 C70.6008944,9.77469346 71.0987822,12.0389267 71.0987822,15.2878999 C71.0987822,18.536873 70.5078824,20.8011063 69.3260651,22.0806676 C68.1442478,23.3602289 66.0651559,24 63.0887271,24 C62.0601083,24 60.4296626,23.8998619 58.197341,23.6995828 L57.0811858,23.5994437 L57.0811858,0 L60.62662,0 L60.62662,7.57719054 C62.1367199,6.90959332 63.5045435,6.57579972 64.7301318,6.57579972 Z M63.0887271,20.7621697 C64.8395676,20.7621697 66.0049533,20.3449277 66.5849192,19.5104312 C67.1648851,18.6759346 67.4548637,17.2573118 67.4548637,15.2545202 C67.4548637,13.2517285 67.2086554,11.8442322 66.7162316,11.0319889 C66.2238077,10.2197456 65.4195274,9.81363004 64.3033666,9.81363004 C63.2528623,9.81363004 62.2023738,9.98052684 61.1518695,10.3143255 L60.62662,10.4812239 L60.62662,20.6286509 C61.8303228,20.7176639 62.651017,20.7621697 63.0887271,20.7621697 Z M86.8234396,12.0834492 L86.8234396,19.6940195 C86.8453251,20.1835908 86.9711649,20.5452005 87.2009627,20.7788595 C87.4307605,21.0125186 87.7863946,21.1627257 88.2678758,21.2294854 L88.1693915,24 C86.287238,24 84.8318737,23.5883212 83.8032549,22.7649513 C82.0524144,23.5883212 80.2906576,24 78.5179316,24 C75.2569912,24 73.6265455,22.2308939 73.6265455,18.6926287 C73.6265455,17.0013824 74.0697204,15.7774725 74.9560833,15.0208623 C75.8424463,14.2642521 77.2047986,13.8080675 79.0431811,13.6522949 L83.2780054,13.2851182 L83.2780054,12.0834492 C83.2780054,11.1933196 83.0865101,10.5702382 82.7035137,10.2141864 C82.3205174,9.85813452 81.756974,9.68011127 81.0128668,9.68011127 C79.6121944,9.68011127 77.8613802,9.76912289 75.7603717,9.94714882 L74.7098726,10.0139082 L74.5785603,7.44367177 C76.9640804,6.86508751 79.1580695,6.57579972 81.1605933,6.57579972 C83.163117,6.57579972 84.6075388,7.01529463 85.4939018,7.89429764 C86.3802647,8.77330064 86.8234396,10.1696705 86.8234396,12.0834492 Z M79.4699464,16.2225313 C77.9598465,16.3560507 77.2048078,17.1905347 77.2048078,18.7260083 C77.2048078,20.2614819 77.8723058,21.0292072 79.2073216,21.0292072 C80.3015969,21.0292072 81.4615113,20.851184 82.6870997,20.4951321 L83.2780054,20.294854 L83.2780054,15.8553547 L79.4699464,16.2225313 Z M94.8991509,23.6328234 L91.3208886,23.6328234 L91.3208886,6.94297636 L94.8663228,6.94297636 L94.8663228,7.97774687 C96.4639647,7.04311076 97.974042,6.57579972 99.3965999,6.57579972 C101.58515,6.57579972 103.078814,7.20444434 103.877635,8.46175243 C104.676456,9.71906053 105.07586,11.7941441 105.07586,14.6870654 L105.07586,23.6328234 L101.530426,23.6328234 L101.530426,14.7872045 C101.530426,12.984692 101.338931,11.7051498 100.955934,10.9485396 C100.572938,10.1919295 99.7905429,9.81363004 98.6087256,9.81363004 C97.4925648,9.81363004 96.4201911,10.0361591 95.3915723,10.4812239 L94.8991509,10.6815021 L94.8991509,23.6328234 Z M112.823291,23.6328234 L109.245028,23.6328234 L109.245028,0 L112.823291,0 L112.823291,13.6522949 L114.858633,13.4520167 L118.732348,6.94297636 L122.737375,6.94297636 L118.01013,14.7538248 L123,23.6328234 L118.962144,23.6328234 L114.957117,16.5897079 L112.823291,16.8233658 L112.823291,23.6328234 Z" id="rebank" fill="#008DD6"></path>
                <rect id="Rectangle-8" fill="#ED3773" x="0" y="20.7272727" width="21.9642857" height="3.27272727"></rect>
            </g>
        </g>
    </g>
</svg>